<svg aria-hidden="true" style="position:absolute;width:0;height:0" xmlns="http://www.w3.org/2000/svg" overflow="hidden">
<defs>
<symbol id="ace-h" viewBox="0 0 32 32"><path fill="var(--color1, #cfd8dc)" d="M8 0h16a3.333 3.333 0 013.333 3.333v25.333A3.333 3.333 0 0124 31.999H8a3.333 3.333 0 01-3.333-3.333V3.333A3.333 3.333 0 018 0z"/><path fill="var(--color2, #f44336)" d="M18.667 10.667A3.336 3.336 0 0016 12a3.334 3.334 0 00-2.667-1.333c-1.611 0-3.333 1.051-3.333 4 0 3.495 5.364 7.684 5.592 7.867.24.185.575.185.815 0 .228-.177 5.592-4.365 5.592-7.867.001-2.949-1.721-4-3.332-4z"/><path fill="var(--color3, #455a64)" d="M12 9.333a.666.666 0 01-.624-.432L10 5.232 8.624 8.901a.667.667 0 11-1.249-.469l2-5.333a.695.695 0 011.25 0l2 5.333a.667.667 0 01-.624.902z"/><path fill="var(--color3, #455a64)" d="M11.333 8H8.666a.667.667 0 110-1.334h2.667a.667.667 0 110 1.334zM22 29.333a.666.666 0 01-.624-.432l-2-5.333a.666.666 0 111.249-.469L22 26.768l1.376-3.669a.667.667 0 111.249.469l-2 5.333a.666.666 0 01-.625.432z"/><path fill="var(--color3, #455a64)" d="M23.333 25.333h-2.667a.667.667 0 010-1.334h2.667a.667.667 0 010 1.334z"/>
</symbol>
<symbol id="magic-trick" viewBox="0 0 32 32"><path fill="var(--color4, #ff7d95)" d="M.625 27.384c0-.094 3.25-1.654 3.25-1.654l2.849 5.02-1.018.616-5.08.009z"/><path fill="var(--color5, #f9f6f4)" d="M3.875 25.729l2.72-1.367 2.789 4.764-2.66 1.623z"/><path fill="var(--color6, #ffdad5)" d="M6.856 24.809l1.887-1.665a3.874 3.874 0 013.839-.753l1.253.437c.41.143.841.216 1.276.216h2.463a1.48 1.48 0 110 2.96h.277a5.08 5.08 0 002.279-.54l2.483-1.247a1.52 1.52 0 012.034.693 1.507 1.507 0 01-.681 2.001l-3.384 1.699a4.85 4.85 0 01-2.259.515H9.385z"/><path fill="var(--color5, #f9f6f4)" d="M21.179 20.6v4.338l-1.05.527a5.078 5.078 0 01-2.279.54h-.277c.409 0 .779-.166 1.047-.434s.434-.638.434-1.046a1.48 1.48 0 00-1.481-1.481H15.11c-.434 0-.865-.073-1.276-.216l-1.253-.437a3.866 3.866 0 00-1.237-.216V20.6z"/><path fill="var(--color6, #ffdad5)" d="M20.139 14.032a1.432 1.432 0 01-1.432-1.432v-2.26c0-.848-.688-1.536-1.536-1.536h-.6c-.745 0-1.436.388-1.823 1.024l-.335.549a3.537 3.537 0 00-.518 1.844v.628a1.376 1.376 0 01-2.75 0v-1.46c0-.618.162-1.225.469-1.761l1.229-2.142a5.07 5.07 0 012.058-1.975l3.307-1.721 4.088 3.986-.738 5.033a1.432 1.432 0 01-1.417 1.224z"/><path fill="var(--color4, #ff7d95)" d="M18.207 3.788l4.088 3.986 2.031-1.953 7.049-3.483V.625L21.31.688z"/><path fill="var(--color5, #f9f6f4)" d="M18.207 3.788l1.971-1.947 4.148 3.98-2.031 1.953z"/><path fill="var(--color7, #000)" d="M11.488 18.227c.02-.006 1.98-.594 4.747-.597 2.753.003 4.707.585 4.748.597a.625.625 0 10.367-1.195c-.086-.026-2.146-.648-5.115-.652-2.968.004-5.027.626-5.113.652a.624.624 0 10.366 1.195zM23.976 23.547a2.113 2.113 0 00-1.644.113l-.527.265V20.6a.625.625 0 00-.625-.625h-9.834a.625.625 0 00-.625.625v.989a4.506 4.506 0 00-2.391 1.086l-1.352 1.193a.625.625 0 00-.664-.065S.544 26.69.451 26.745c-.157.092-.451.262-.451.638v3.991c0 .341.287.625.626.625l5.08-.009a.618.618 0 00.322-.09l3.53-2.149h1.775a.625.625 0 000-1.25H9.741l-2.086-3.564 1.501-1.324a3.253 3.253 0 012.371-.805c.726.049 1.424.374 2.102.61a4.5 4.5 0 001.482.251h2.463c.472 0 .855.384.855.855a.866.866 0 01-.855.855h-3.263a.625.625 0 000 1.25h3.263c.987.009 1.948-.16 2.837-.607l2.482-1.247a.891.891 0 011.191.405.885.885 0 01-.399 1.171l-3.384 1.699a4.249 4.249 0 01-1.968.449h-1.47a.625.625 0 000 1.25h1.454a5.507 5.507 0 002.545-.581l3.384-1.699a2.142 2.142 0 00.964-2.831 2.118 2.118 0 00-1.233-1.093zM5.531 30.741l-4.281.008V27.73a81.42 81.42 0 012.37-1.184l2.26 3.983zm1.418-.861l-2.206-3.887 1.609-.809 2.182 3.729zm5.022-8.655h8.584v3.327s-.855.427-.931.46a2.109 2.109 0 00-2.05-2.593h-2.463c-.362 0-.728-.062-1.07-.181-.676-.236-1.359-.533-2.071-.639v-.374zM31.816.182A.628.628 0 0031.375 0h-.004L21.306.063a.626.626 0 00-.438.183l-3.035 3.033-3.221 1.676a5.676 5.676 0 00-2.311 2.219l-1.229 2.142a4.173 4.173 0 00-.552 2.072v1.46c0 .446.147.859.395 1.192a.626.626 0 00-.207.671.633.633 0 00.781.414c.019-.006 1.965-.594 4.746-.597 2.769.003 4.729.591 4.749.597a.625.625 0 00.598-1.064 2.05 2.05 0 00.593-1.163l.707-4.822 1.808-1.738 6.962-3.44a.625.625 0 00.348-.56V.625a.624.624 0 00-.184-.443zm-9.518 6.722L19.1 3.785l1.085-1.072 3.239 3.108zm-7.844 6.45a2.01 2.01 0 00.065-.506v-.628c0-.536.147-1.061.427-1.518l.335-.549a1.519 1.519 0 011.29-.724h.6c.502 0 .911.409.911.911v2.26c0 .274.054.535.152.774a21.541 21.541 0 00-1.999-.096c-.639.001-1.236.03-1.78.076zm6.484-.638a.808.808 0 01-1.606-.117v-2.26c0-1.192-.97-2.161-2.161-2.161h-.6c-.956 0-1.859.507-2.357 1.323l-.335.549a4.16 4.16 0 00-.609 2.169v.628a.75.75 0 01-.597.734l-.012.002a.75.75 0 01-.891-.736v-1.46c0-.508.134-1.01.386-1.45l1.229-2.142a4.444 4.444 0 011.804-1.732l2.906-1.512 3.536 3.448zM30.75 1.949l-6.308 3.117-3.382-3.245.51-.51 9.18-.057zM23.048 19.287a.632.632 0 00.814-.346c.554-1.373-.042-2.617-.067-2.669-.152-.31-.527-.44-.837-.288s-.439.524-.287.834c.004.008.373.811.033 1.656a.625.625 0 00.346.813zM9.137 19.333a.625.625 0 00.58-.859c-.338-.838.023-1.635.032-1.656a.624.624 0 00-1.124-.546c-.026.052-.621 1.296-.067 2.669a.622.622 0 00.58.391z"/><path fill="var(--color7, #000)" d="M14.688 28.887a.63.63 0 00-.623-.384.63.63 0 00-.563.486c-.123.546.511.968.969.648a.629.629 0 00.217-.75z"/>
</symbol>
<symbol id="ace-c" viewBox="0 0 32 32"><path fill="var(--color8, #e6e7e8)" d="M3.862 0h24.276c.609 0 1.103.494 1.103 1.103v29.793c0 .609-.494 1.103-1.103 1.103H3.862a1.103 1.103 0 01-1.103-1.103V1.103C2.759.494 3.253 0 3.862 0z"/><path fill="var(--color9, #35495e)" d="M7.474 2.028a.551.551 0 00-.522-.373H6.29a.552.552 0 00-.522.373L4.444 5.89a.55.55 0 001.043.358l.25-.731h1.766l.25.731a.55.55 0 101.043-.358L7.472 2.028zM6.116 4.414l.505-1.471.505 1.471H6.117zM27.213 25.409a.552.552 0 00-.701.343l-.25.731h-1.766l-.25-.731a.55.55 0 10-1.043.358l1.324 3.862a.551.551 0 00.522.373h.662c.236 0 .445-.15.522-.373l1.324-3.862a.554.554 0 00-.343-.7zm-1.834 3.649l-.505-1.471h1.009l-.505 1.471zM19.862 19.655a3.319 3.319 0 01-2.759-1.479v2.737c.226.349.511.656.844.905a.77.77 0 01.259.607v.265a.634.634 0 01-.552.69h-3.31a.634.634 0 01-.552-.69v-.265a.77.77 0 01.259-.607c.333-.249.619-.556.844-.905v-2.737a3.312 3.312 0 11-2.759-5.142 3.264 3.264 0 011.777.519l.066-.105a3.312 3.312 0 012.019-5.934 3.31 3.31 0 012.019 5.934l.066.105a3.31 3.31 0 111.777 6.101zM9.379 10.439a1.146 1.146 0 01-1.932.833v1.418a.552.552 0 11-1.104 0v-1.412a1.144 1.144 0 11-.783-1.98c.217-.003.43.059.612.177l.022-.033a1.148 1.148 0 01.7-2.056 1.148 1.148 0 01.7 2.056l.022.033a1.146 1.146 0 011.76.965zM27.586 21.561a1.145 1.145 0 01-1.148 1.142 1.098 1.098 0 01-.612-.177l-.022.033a1.148 1.148 0 01-.7 2.056 1.148 1.148 0 01-.7-2.056l-.022-.033a1.145 1.145 0 11.171-1.804V19.31a.552.552 0 111.104 0v1.418c.332-.315.82-.402 1.241-.221s.692.596.69 1.054z"/>
</symbol>
<symbol id="all-in" viewBox="0 0 32 32"><path fill="var(--color10, #ee2849)" d="M18.759 18.759h8.828v6.621h-8.828v-6.621z"/><path fill="var(--color11, #faa41b)" d="M18.759 25.379h8.828V32h-8.828v-6.621zM5.517 25.379h8.828V32H5.517v-6.621z"/><path fill="var(--color10, #ee2849)" d="M5.517 18.759h8.828v6.621H5.517v-6.621z"/><path fill="var(--color12, #f2cba7)" d="M1.103 1.655v9.931l3.034 4.338c.441.63 1.309.784 1.939.343l.038-.027a1.393 1.393 0 00.323-1.887l-2.576-3.87.552-3.31L6.62 9.38a1.56 1.56 0 102.207-2.207l-3.31-3.31V1.656H1.103zM23.172 7.172l3.31-3.31V1.655h4.414v9.931l-2.516 4.193a1.391 1.391 0 01-2.411-1.392l2.169-3.904-.552-3.31-2.207 2.207a1.56 1.56 0 11-2.207-2.207z"/><path fill="var(--color10, #ee2849)" d="M4.414 18.759h9.931v2.207H4.414v-2.207z"/><path fill="var(--color13, #eff2fa)" d="M7.724 18.759h3.31v2.207h-3.31v-2.207z"/><path fill="var(--color14, #393856)" d="M0 0h6.621v2.207H0V0zM25.379 0H32v2.207h-6.621V0z"/><path fill="var(--color10, #ee2849)" d="M4.414 23.172h9.931v2.207H4.414v-2.207z"/><path fill="var(--color13, #eff2fa)" d="M7.724 23.172h3.31v2.207h-3.31v-2.207z"/><path fill="var(--color11, #faa41b)" d="M5.517 25.379h9.931v2.207H5.517v-2.207z"/><path fill="var(--color13, #eff2fa)" d="M8.828 25.379h3.31v2.207h-3.31v-2.207z"/><path fill="var(--color15, #f08015)" d="M4.414 27.586h9.931v2.207H4.414v-2.207z"/><path fill="var(--color16, #d9dde1)" d="M7.724 27.586h3.31v2.207h-3.31v-2.207z"/><path fill="var(--color11, #faa41b)" d="M5.517 29.793h9.931V32H5.517v-2.207z"/><path fill="var(--color13, #eff2fa)" d="M8.828 29.793h3.31V32h-3.31v-2.207z"/><path fill="var(--color17, #b20d24)" d="M5.517 20.966h9.931v2.207H5.517v-2.207z"/><path fill="var(--color16, #d9dde1)" d="M8.828 20.966h3.31v2.207h-3.31v-2.207z"/><path fill="var(--color10, #ee2849)" d="M17.655 18.759h9.931v2.207h-9.931v-2.207z"/><path fill="var(--color13, #eff2fa)" d="M20.966 18.759h3.31v2.207h-3.31v-2.207z"/><path fill="var(--color10, #ee2849)" d="M17.655 23.172h9.931v2.207h-9.931v-2.207z"/><path fill="var(--color13, #eff2fa)" d="M20.966 23.172h3.31v2.207h-3.31v-2.207z"/><path fill="var(--color11, #faa41b)" d="M18.759 25.379h9.931v2.207h-9.931v-2.207z"/><path fill="var(--color13, #eff2fa)" d="M22.069 25.379h3.31v2.207h-3.31v-2.207z"/><path fill="var(--color15, #f08015)" d="M17.655 27.586h9.931v2.207h-9.931v-2.207z"/><path fill="var(--color16, #d9dde1)" d="M20.966 27.586h3.31v2.207h-3.31v-2.207z"/><path fill="var(--color11, #faa41b)" d="M18.759 29.793h9.931V32h-9.931v-2.207z"/><path fill="var(--color13, #eff2fa)" d="M22.069 29.793h3.31V32h-3.31v-2.207z"/><path fill="var(--color17, #b20d24)" d="M18.759 20.966h9.931v2.207h-9.931v-2.207z"/><path fill="var(--color16, #d9dde1)" d="M22.069 20.966h3.31v2.207h-3.31v-2.207z"/>
</symbol>
<symbol id="ace-s" viewBox="0 0 32 32"><path fill="var(--color8, #e6e7e8)" d="M3.862 0h24.276c.609 0 1.103.494 1.103 1.103v29.793c0 .609-.494 1.103-1.103 1.103H3.862a1.103 1.103 0 01-1.103-1.103V1.103C2.759.494 3.253 0 3.862 0z"/><path fill="var(--color9, #35495e)" d="M20.645 18.715a3.046 3.046 0 01-3.542.309v1.545c.226.349.511.656.844.905a.77.77 0 01.259.607v.265a.634.634 0 01-.552.69h-3.31a.634.634 0 01-.552-.69v-.265a.77.77 0 01.259-.607c.333-.249.619-.556.844-.905v-1.545a3.046 3.046 0 01-3.542-.309c-1.164-1.087-1.164-3.25 0-5.418.811-1.622 2.902-3.25 4.646-4.331 1.743 1.081 3.835 2.709 4.646 4.331 1.164 2.168 1.164 4.331 0 5.418zM8.014 8.54A4.056 4.056 0 006.62 7.172 4.064 4.064 0 005.226 8.54c-.348.684-.348 1.368 0 1.71a.871.871 0 00.842.193v1.143a.552.552 0 101.104 0v-1.143a.871.871 0 00.842-.193c.348-.342.348-1.026 0-1.71zM26.773 21.198a.871.871 0 00-.842-.193v-1.143a.552.552 0 10-1.104 0v1.143a.871.871 0 00-.842.193c-.348.342-.348 1.026 0 1.71a4.056 4.056 0 001.394 1.368 4.064 4.064 0 001.394-1.368c.349-.684.349-1.368 0-1.71zM7.474 2.028a.551.551 0 00-.522-.373H6.29a.552.552 0 00-.522.373L4.444 5.89a.55.55 0 001.043.358l.25-.731h1.766l.25.731a.55.55 0 101.043-.358L7.472 2.028zM6.116 4.414l.505-1.471.505 1.471H6.117zM27.213 25.409a.552.552 0 00-.701.343l-.25.731h-1.766l-.25-.731a.55.55 0 10-1.043.358l1.324 3.862a.551.551 0 00.522.373h.662c.236 0 .445-.15.522-.373l1.324-3.862a.554.554 0 00-.343-.7zm-1.834 3.649l-.505-1.471h1.009l-.505 1.471z"/>
</symbol>
<symbol id="cards" viewBox="0 0 32 32"><path d="M21.48 6.615a.523.523 0 00-.281-.259l-.004-.001L17 4.83V2.5a.5.5 0 00-.5-.5h-10a.5.5 0 00-.5.5V8H5a.508.508 0 00-.489.387l-.001.003-.96 4.33-2.36 1.89A.499.499 0 001 15v5c0 .094.026.182.071.257l-.001-.002 1.415 2.355-.98 8.33.99.12 1-8.5a.496.496 0 00-.066-.317l.001.002L2 19.86v-4.62l2.31-1.85a.504.504 0 00.179-.277l.001-.003L5.4 9H6v5.1l-1.82 1.515a.497.497 0 00-.18.382V17.5h1v-1.265l2.47-2.06.87.87L7.1 16.7a.515.515 0 00-.095.383v-.003l.495 2.96v1.255l-.855.85a.514.514 0 00-.145.355V31h1v-8.295l.855-.85A.514.514 0 008.5 21.5V20v-.015a.363.363 0 00-.006-.067v.002l-.21-1.24 7.44 2.71c.05.019.108.03.168.03h.002a.522.522 0 00.213-.046l-.003.001a.523.523 0 00.259-.281l.001-.004 5.13-14.095a.496.496 0 00-.017-.383l.001.003zM8.125 17L9.4 15.3a.499.499 0 00-.045-.655l-1.5-1.5a.501.501 0 00-.676-.029l.001-.001-.18.15V3h9v14zm7.47 3.28L9.335 18h7.09zM17 16.42V5.895l3.385 1.23z"/><path d="M10.45 5.777l-1-2a.522.522 0 00-.893-.002l-.001.002-1 2a.496.496 0 00.001.449l-.001-.003 1 2a.5.5 0 00.893.003l.001-.003 1-2a.496.496 0 00-.001-.449l.001.003zM9 6.882L8.559 6 9 5.118 9.441 6zM15.445 13.775l-1-2a.52.52 0 00-.889-.002l-.001.002-1 2a.478.478 0 00.002.453l-.001-.003 1 2a.5.5 0 00.889.003l.001-.003 1-2a.478.478 0 00-.002-.453l.001.003zM14 14.88l-.44-.88.44-.88.44.88zM30.5 23h-15a.5.5 0 00-.5.5v1h-.5a.5.5 0 00-.5.5v1h-1.5a.5.5 0 00-.5.5V28a.5.5 0 00.5.5H14v1a.5.5 0 00.5.5h15a.5.5 0 00.5-.5V28a.5.5 0 00-.5-.5H28V27h1.5a.5.5 0 00.5-.5v-1h.5a.5.5 0 00.5-.5v-1.5a.5.5 0 00-.5-.5zM13 27.5V27h14v.5zm16 1v.5H15v-.5zm0-2.5H15v-.5h14zm1-1.5H16V24h14z"/>
</symbol>
<symbol id="ace-d" viewBox="0 0 32 32"><path fill="var(--color8, #e6e7e8)" d="M3.862 0h24.276c.609 0 1.103.494 1.103 1.103v29.793c0 .609-.494 1.103-1.103 1.103H3.862a1.103 1.103 0 01-1.103-1.103V1.103C2.759.494 3.253 0 3.862 0z"/><path fill="var(--color18, #d75e72)" d="M7.474 2.028a.551.551 0 00-.522-.373H6.29a.552.552 0 00-.522.373L4.444 5.89a.55.55 0 001.043.358l.25-.731h1.766l.25.731a.55.55 0 101.043-.358L7.472 2.028zM6.116 4.414l.505-1.471.505 1.471H6.117zM27.213 25.409a.552.552 0 00-.701.343l-.25.731h-1.766l-.25-.731a.55.55 0 10-1.043.358l1.324 3.862a.551.551 0 00.522.373h.662c.236 0 .445-.15.522-.373l1.324-3.862a.554.554 0 00-.343-.7zm-1.834 3.649l-.505-1.471h1.009l-.505 1.471zM15.536 8.988l-4.31 6.704a.552.552 0 000 .597l4.31 6.704a.55.55 0 00.928 0l4.31-6.704a.552.552 0 000-.597l-4.31-6.704a.551.551 0 00-.928 0zM6.463 7.249L4.996 9.543a.188.188 0 000 .204l1.467 2.294a.187.187 0 00.316 0l1.467-2.294a.188.188 0 000-.204L6.779 7.249a.187.187 0 00-.316 0zM25.221 19.939l-1.467 2.294a.188.188 0 000 .204l1.467 2.294a.187.187 0 00.316 0l1.467-2.294a.188.188 0 000-.204l-1.467-2.294a.187.187 0 00-.316 0z"/>
</symbol>
<symbol id="chips" viewBox="0 0 32 32"><path fill="var(--color19, #f0bc5e)" d="M14.968 23.226c0-.351.029-.693.071-1.032h-2.136v3.097h2.335a8.266 8.266 0 01-.27-2.065zM6.71 12.903h4.129V16H6.71zM18.065 16h-3.097v-3.097h3.097c.57 0 1.032.462 1.032 1.032v1.032c0 .57-.462 1.032-1.032 1.032zM4.645 16h4.129v3.097H4.645zM16 19.097h-3.097V16H16c.57 0 1.032.462 1.032 1.032v1.032c0 .57-.462 1.032-1.032 1.032zM6.71 19.097h4.129v3.097H6.71z"/><path fill="var(--color19, #f0bc5e)" d="M4.645 22.194h4.129v3.097H4.645z"/><path fill="var(--color19, #f0bc5e)" d="M6.71 25.29h4.129v3.097H6.71zM12.903 31.484H8.774v-3.097h4.129zM1.548 28.387h3.097v3.097H1.548c-.57 0-1.032-.462-1.032-1.032V29.42c0-.57.462-1.032 1.032-1.032zM23.226 28.215l-3.742-4.989 3.742-4.989 3.742 4.989z"/><path fill="var(--color7, #000)" d="M23.226 14.452c-1.3 0-2.53.292-3.642.802a1.5 1.5 0 00.029-.286v-1.032a1.55 1.55 0 00-1.548-1.548h-6.763a6.703 6.703 0 003.15-5.677c0-3.7-3.01-6.71-6.71-6.71s-6.71 3.01-6.71 6.71a6.702 6.702 0 003.15 5.677h-.569a1.55 1.55 0 00-1.548 1.548v1.032c0 .182.037.354.095.516h-.611a1.55 1.55 0 00-1.548 1.548v1.032a1.55 1.55 0 001.548 1.548h.611a1.524 1.524 0 00-.095.516v1.032c0 .182.037.354.095.516h-.611a1.55 1.55 0 00-1.548 1.548v1.032a1.55 1.55 0 001.548 1.548h.611a1.524 1.524 0 00-.095.516v1.032c0 .182.037.354.095.516h-.611a1.55 1.55 0 00-1.548 1.548v1.032a1.55 1.55 0 001.548 1.548h14.452a1.55 1.55 0 001.548-1.548V29.9a8.731 8.731 0 005.677 2.097c4.838 0 8.774-3.936 8.774-8.774s-3.936-8.774-8.774-8.774zm7.742 8.774a7.68 7.68 0 01-.803 3.411l-.895-.517a6.66 6.66 0 00.007-5.791l.888-.513a7.68 7.68 0 01.803 3.411zM5.161 28.903h3.097v2.065H5.161zm0-6.193h3.097v2.065H5.161zm0-6.194h3.097v2.065H5.161zm4.129 8.258v-2.065h3.097v2.065zm4.129-2.064h1.058c-.01.172-.026.342-.026.516 0 .529.055 1.045.145 1.548h-1.177zm1.178-1.033h-3.242v-2.065h3.884a8.672 8.672 0 00-.643 2.065zm1.919-4.645v.551a8.735 8.735 0 00-.72.997H13.42v-2.065h2.581c.284 0 .516.232.516.516zm-5.161-1.548v-2.065h3.097v2.065zm1.032 1.032v2.065H9.29v-2.065zm-2.064 3.097v2.065H7.226v-2.065zm0 6.193v2.065H7.226v-2.065zM9.29 28.903h3.097v2.065H9.29zm2.065-1.032v-2.065h3.485a8.76 8.76 0 00.955 2.065zm4.129-4.645c0-1.225.294-2.38.803-3.411l.895.517a6.66 6.66 0 00-.007 5.791l-.888.513a7.68 7.68 0 01-.803-3.411zm2.21-3.79l-.897-.518a7.744 7.744 0 015.913-3.408v1.032a6.71 6.71 0 00-5.016 2.894zm-.212-2.827c-.009-.031-.018-.062-.029-.093h.13c-.035.029-.067.063-.101.093zm1.099-2.674v1.032a.517.517 0 01-.516.516h-2.581v-2.065h2.581c.284 0 .516.232.516.516zm-8.258-.516v2.065H7.226v-2.065zM4.129 6.71c0-1.992 1.621-3.613 3.613-3.613s3.613 1.621 3.613 3.613-1.621 3.613-3.613 3.613S4.129 8.702 4.129 6.71zm4.129 5.651v-1.037a4.638 4.638 0 003.217-1.863l.899.519a5.675 5.675 0 01-4.117 2.38zm4.633-3.275l-.895-.517a4.604 4.604 0 00.001-3.72l.895-.517c.335.724.528 1.528.528 2.377s-.193 1.653-.528 2.377zm-.516-5.647l-.899.519a4.64 4.64 0 00-3.217-1.863V1.058a5.673 5.673 0 014.117 2.381zM7.226 1.058v1.037a4.638 4.638 0 00-3.217 1.863l-.899-.519a5.676 5.676 0 014.117-2.381zM2.593 4.333l.895.517a4.604 4.604 0 00-.001 3.72l-.895.517c-.335-.724-.528-1.528-.528-2.377s.193-1.653.528-2.377zm.516 5.647l.899-.519a4.64 4.64 0 003.217 1.863v1.037a5.672 5.672 0 01-4.117-2.38zm-.012 4.988v-1.032c0-.284.232-.516.516-.516h2.581v2.065H3.613a.517.517 0 01-.516-.516zm-2.065 3.097v-1.032c0-.284.232-.516.516-.516h2.581v2.065H1.548a.517.517 0 01-.516-.516zm2.065 3.096v-1.032c0-.284.232-.516.516-.516h2.581v2.065H3.613a.517.517 0 01-.516-.516zm-2.065 3.097v-1.032c0-.284.232-.516.516-.516h2.581v2.065H1.548a.517.517 0 01-.516-.516zm2.065 3.097v-1.032c0-.284.232-.516.516-.516h2.581v2.065H3.613a.517.517 0 01-.516-.516zm-2.065 3.097V29.42c0-.284.232-.516.516-.516h2.581v2.065H1.548a.517.517 0 01-.516-.516zm15.484 0a.517.517 0 01-.516.516h-2.581v-2.065h3.097zm.281-2.918l.901-.52a6.71 6.71 0 001.257 1.387l.657-.796a5.665 5.665 0 01-2.064-4.379 5.684 5.684 0 015.677-5.677c1.006 0 2 .272 2.874.788l.524-.89a6.72 6.72 0 00-2.882-.908v-1.028a7.744 7.744 0 015.913 3.408l-.901.52a6.71 6.71 0 00-1.257-1.387l-.657.796a5.667 5.667 0 012.063 4.379 5.684 5.684 0 01-5.677 5.677c-1.006 0-2-.272-2.874-.788l-.524.89a6.72 6.72 0 002.882.908v1.028a7.74 7.74 0 01-5.912-3.409zm6.945 3.408V29.91a6.71 6.71 0 005.016-2.894l.897.518a7.742 7.742 0 01-5.913 3.409z"/><path fill="var(--color7, #000)" d="M7.742 5.375V9.29h1.032V4.129H7.528l-1.7 1.7.73.73z"/>
</symbol>
<symbol id="aces" viewBox="0 0 32 32"><path fill="var(--color20, #fff)" d="M1.552 4.68L16.524.668a1.25 1.25 0 011.531.884l6.082 22.699a1.25 1.25 0 01-.884 1.531L8.281 29.794a1.25 1.25 0 01-1.531-.884L.668 6.211a1.25 1.25 0 01.884-1.531z"/><path fill="var(--color21, #6d92ac)" d="M10.097 18.606a2.561 2.561 0 003.274-.61 2.562 2.562 0 002.202-4.608l-4.067-2.348-2.348 4.067a2.561 2.561 0 00.938 3.499z"/><path fill="var(--color20, #fff)" d="M14.625 5.375h15.5c.69 0 1.25.56 1.25 1.25v23.5c0 .69-.56 1.25-1.25 1.25h-15.5c-.69 0-1.25-.56-1.25-1.25v-23.5c0-.69.56-1.25 1.25-1.25z"/><path fill="var(--color22, #ff7d97)" d="M25.696 15.745a2.562 2.562 0 00-3.32-.259 2.562 2.562 0 00-3.32 3.881l3.32 3.32 3.32-3.32c1-1 1-2.622 0-3.622z"/><path fill="var(--color7, #000)" d="M5.831 6.406a.626.626 0 00-1.127.302l-.401 3.731a.625.625 0 00.555.688c.023.002.045.004.068.004a.626.626 0 00.621-.558l.228-2.124 1.26 1.725a.624.624 0 101.009-.737z"/><path fill="var(--color7, #000)" d="M30.125 4.75H19.559l-.9-3.36c-.13-.484-.44-.888-.874-1.138s-.939-.317-1.423-.187L1.39 4.077c-.484.13-.888.44-1.138.874s-.317.939-.187 1.423l6.082 22.699c.13.484.44.888.874 1.138a1.86 1.86 0 001.422.187l4.307-1.154v.882c0 1.034.841 1.875 1.875 1.875h15.5A1.877 1.877 0 0032 30.126v-8.937a.625.625 0 00-1.25 0v8.937c0 .345-.28.625-.625.625h-15.5a.625.625 0 01-.625-.625v-23.5c0-.345.28-.625.625-.625h15.5c.345 0 .625.28.625.625v8.937a.625.625 0 001.25 0V6.626a1.877 1.877 0 00-1.875-1.875zM12.75 17.754c-.609.611-1.58.75-2.341.311A1.938 1.938 0 019.7 15.42l2.035-3.525 1.014.585zm0-11.129v4.411l-.93-.537a.625.625 0 00-.854.229l-2.348 4.067c-.426.737-.539 1.596-.318 2.418s.748 1.509 1.485 1.935a3.199 3.199 0 001.6.432c.472 0 .938-.106 1.365-.311v8.681l-4.631 1.241a.623.623 0 01-.765-.442L1.272 6.05a.627.627 0 01.442-.766l14.972-4.012a.623.623 0 01.765.441l.814 3.036h-3.639a1.877 1.877 0 00-1.875 1.875z"/><path fill="var(--color7, #000)" d="M19.307 12.458a.625.625 0 00.358-.808l-1.353-3.5a.625.625 0 00-1.166 0l-1.353 3.5a.625.625 0 001.166.45l.77-1.992.77 1.992a.625.625 0 00.808.358zM26.439 28.6a.625.625 0 001.166 0l1.353-3.5a.624.624 0 10-1.166-.45l-.77 1.992-.77-1.992a.625.625 0 00-1.166.45zM21.933 23.13a.623.623 0 00.884 0l3.32-3.32a3.19 3.19 0 000-4.506 3.166 3.166 0 00-3.762-.555 3.166 3.166 0 00-3.762.555 3.19 3.19 0 000 4.506zm-2.436-6.943a1.94 1.94 0 011.374-.564c.399 0 .799.121 1.136.368.22.161.518.161.738 0a1.949 1.949 0 012.51.196 1.94 1.94 0 010 2.739l-2.878 2.878-2.878-2.878a1.94 1.94 0 010-2.739zM31.375 17.75c-.164 0-.326.067-.442.183a.63.63 0 000 .884.63.63 0 00.884 0 .63.63 0 000-.884.63.63 0 00-.442-.183z"/>
</symbol>
<symbol id="poker-table" viewBox="0 0 32 32"><path d="M10.214 2.498h1.024v.938h-1.024v-.938zM23.58 4.702h1.024v.938H23.58v-.938zM2.121 7.879h1.024v.937H2.121v-.938zM18.824 26.029h1.024v.938h-1.024v-.938zM26.741 28.564h1.024v.938h-1.024v-.938zM6.92 28.564h1.024v.938H6.92v-.938zM23.582 7.88h-2.614a5.633 5.633 0 00-3.079.888c-.562.365-1.215.558-1.889.558s-1.327-.193-1.889-.558a5.631 5.631 0 00-3.079-.888H8.418C3.777 7.88 0 11.656 0 16.298s3.776 8.418 8.418 8.418h15.164c4.642 0 8.418-3.776 8.418-8.418S28.224 7.88 23.582 7.88zm0 15.898H8.418c-4.125 0-7.48-3.356-7.48-7.48s3.356-7.48 7.48-7.48h2.614c.938 0 1.826.255 2.568.737.715.464 1.544.71 2.4.71s1.685-.245 2.4-.71a4.695 4.695 0 012.568-.737h2.614c4.125 0 7.48 3.356 7.48 7.48s-3.356 7.48-7.48 7.48z"/><path d="M23.451 9.583h-2.595c-.915 0-1.786.251-2.518.727-.361.235-1.693.432-2.338.432s-1.977-.198-2.338-.432a4.601 4.601 0 00-2.518-.727H8.549c-3.771 0-6.839 3.068-6.839 6.839s3.068 6.839 6.839 6.839h14.903c3.771 0 6.839-3.068 6.839-6.839s-3.068-6.839-6.839-6.839zm-2.595.938h2.595a5.87 5.87 0 013.565 1.202l-1.801 2.521a2.877 2.877 0 00-1.742-.586l-1.936-.001-.737-3.135.056-.001zm-8.723.127c.364.097.708.247 1.018.448.64.416 2.275.584 2.849.584s2.209-.168 2.849-.584c.31-.202.654-.352 1.018-.448l.928 3.945 2.678.002c1.076 0 1.952.876 1.952 1.952s-.876 1.952-1.952 1.952H8.526c-1.076 0-1.952-.876-1.952-1.952s.876-1.952 1.952-1.952l2.678-.002.928-3.945zm-3.584-.127h2.595l.056.001-.737 3.135-1.936.001c-.654 0-1.257.219-1.742.586l-1.801-2.521a5.87 5.87 0 013.565-1.202zm-5.902 5.901a5.88 5.88 0 011.634-4.072l1.848 2.587a2.871 2.871 0 00-.491 1.61c0 .562.162 1.086.44 1.53l-2.215 1.928a5.872 5.872 0 01-1.216-3.583zm7.078 5.902H8.549c-1.571 0-3-.617-4.059-1.621l2.207-1.921a2.877 2.877 0 001.83.655h1.198v2.887zm5.806 0h-4.869v-2.887h4.869v2.887zm5.807 0h-4.869v-2.887h4.869v2.887zm2.113 0h-1.176v-2.887h1.198c.694 0 1.331-.246 1.83-.655l2.207 1.921a5.883 5.883 0 01-4.059 1.621zm4.686-2.319l-2.214-1.928a2.876 2.876 0 00-.051-3.14l1.848-2.587a5.884 5.884 0 011.633 4.072 5.872 5.872 0 01-1.216 3.583z"/>
</symbol>
</defs>
</svg>